<svg width="244" height="99" viewBox="0 0 244 99" fill="none" xmlns="http://www.w3.org/2000/svg">
<g clip-path="url(#clip0_39_222)">
<path d="M87.2132 23.9818C87.2132 23.9522 87.2132 23.9225 87.2132 23.8928C87.2001 23.7938 87.1803 23.6948 87.1539 23.5958C87.1539 23.5826 87.1473 23.5694 87.144 23.5562C87.121 23.4737 87.0946 23.3945 87.0616 23.3153C87.0485 23.2823 87.032 23.2526 87.0188 23.2229C86.9924 23.1635 86.9661 23.1041 86.9331 23.048L86.8705 22.9491C86.8375 22.8996 86.8046 22.8501 86.7683 22.8006C86.732 22.7511 86.7123 22.7379 86.6892 22.7049C86.6529 22.662 86.6134 22.6191 86.5705 22.5795C86.5409 22.5465 86.5112 22.5168 86.4783 22.4871L86.3464 22.3749C86.3036 22.3353 86.2772 22.3254 86.2377 22.3023C86.2179 22.2858 86.1981 22.2693 86.175 22.2561C86.1487 22.2363 86.119 22.2198 86.0893 22.2033C86.063 22.1934 86.0432 22.1769 86.0201 22.1637L44.6761 0.263822C44.0104 -0.0892427 43.2161 -0.0892427 42.5536 0.263822L1.20631 22.1637C1.18323 22.1736 1.16016 22.1934 1.13709 22.2033C1.11402 22.2165 1.08106 22.233 1.0514 22.2561C1.02833 22.2693 1.00855 22.2858 0.988775 22.3023L0.883306 22.3749L0.748173 22.4871C0.721806 22.5168 0.688847 22.5465 0.659183 22.5795C0.616336 22.6191 0.576785 22.662 0.537234 22.7049C0.514163 22.7412 0.4845 22.7676 0.458132 22.8006L0.355959 22.9491L0.293337 23.048L0.207643 23.2229C0.194459 23.2526 0.177979 23.2823 0.164796 23.3153C0.135133 23.3945 0.105469 23.4737 0.0823979 23.5562C0.0823979 23.5727 0.0758061 23.5826 0.0725102 23.5958C0.0461428 23.6948 0.0263673 23.7938 0.0131837 23.8928C0.00988775 23.9225 0.00988775 23.9522 0.0131837 23.9818C0.0131837 24.0412 0 24.1072 0 24.1699V42.5425C0.0527347 63.3997 12.0762 82.3695 30.9025 91.3017L42.6426 96.8287L42.6623 96.8386L42.7316 96.8683C42.8008 96.898 42.87 96.9211 42.9392 96.9409C42.9689 96.954 43.0018 96.964 43.0315 96.9706C43.1007 96.987 43.1666 97.0002 43.2391 97.0134C43.2622 97.0134 43.2919 97.0266 43.3215 97.0299C43.4204 97.0431 43.5193 97.0497 43.6182 97.0497C43.717 97.0497 43.8159 97.0431 43.9115 97.0299L44.0005 97.0134C44.0664 97.0002 44.1356 96.9903 44.2015 96.9706L44.2938 96.9475C44.363 96.9211 44.4421 96.898 44.5048 96.8683C44.5278 96.8617 44.5509 96.8518 44.5707 96.8386C44.5806 96.8386 44.5872 96.8353 44.5938 96.8287L56.3338 91.3017C58.3146 90.3646 60.2362 89.3054 62.0918 88.134C62.7575 87.715 63.1629 86.9857 63.1629 86.2004C63.1629 85.3689 62.7081 84.6067 61.9797 84.2074C61.2513 83.8082 60.3647 83.8379 59.666 84.2866C57.9653 85.3623 56.1987 86.3357 54.376 87.1936L45.8792 91.1961V74.876C60.5559 67.3131 69.7976 52.1907 69.8405 35.6627V33.7984L82.6781 27.7534V42.5392C82.6781 47.2808 81.9892 51.9993 80.628 56.543C80.4237 57.2326 80.5555 57.9784 80.984 58.5525C81.4124 59.1299 82.0848 59.4698 82.8033 59.4698C83.8119 59.4698 84.6985 58.8066 84.9852 57.8431C86.4651 52.8771 87.2165 47.723 87.2198 42.5425V24.1699C87.2231 24.1072 87.2198 24.0445 87.2132 23.9818ZM41.3374 91.1895L32.8372 87.1837C15.5963 79.0104 4.58462 61.641 4.53518 42.5425V27.76L17.3728 33.8083V35.6726C17.4156 52.1973 26.6574 67.3197 41.3341 74.8826L41.3374 91.1895ZM41.3374 69.6856C29.4754 62.6441 22.1222 49.9371 21.9244 36.1312L41.3374 45.2779V69.6856ZM43.6083 41.1269L24.9171 32.3267L43.6083 22.4244L62.2961 32.3267L43.6083 41.1269ZM45.8792 69.6856V45.2713L65.2954 36.1246C65.0977 49.9338 57.7445 62.6441 45.8792 69.6856ZM67.441 29.9048L44.6696 17.8478C44.0038 17.4947 43.2095 17.4947 42.547 17.8478L19.7755 29.9081L7.3433 24.0544L43.6083 4.84706L79.8699 24.0544L67.441 29.9048ZM78.7131 89.2724C71.7653 89.2724 66.1227 85.5999 66.1227 75.9715C66.1227 67.0392 71.6236 62.918 78.0176 62.918C85.2324 62.918 88.7261 67.5441 89.0491 75.8131C89.0623 76.1529 88.9337 76.4829 88.6997 76.7271C88.4624 76.9746 88.1394 77.1131 87.7999 77.1131H73.5451C73.1693 77.1131 72.8134 77.2847 72.5761 77.5784C72.3421 77.8721 72.2465 78.2548 72.3256 78.6244C73.1759 82.9272 76.0203 84.2602 79.5041 84.2602C81.5278 84.28 83.535 83.8907 85.4071 83.1152C85.8224 82.9436 86.297 83.0129 86.6496 83.2934C87.0023 83.5739 87.1737 84.0226 87.1012 84.4681L86.7353 86.8043C86.6727 87.1903 86.4354 87.5236 86.0926 87.7117C83.8119 88.8633 81.2674 89.4011 78.7131 89.2724ZM73.8186 73.4901H82.51C82.9055 73.4901 83.2779 73.302 83.5119 72.9852C83.7492 72.6685 83.8185 72.256 83.7064 71.8799C83.1626 69.3358 80.862 67.5606 78.2648 67.6827C75.6874 67.6497 73.3968 69.3259 72.6486 71.7974C72.5069 72.1834 72.5596 72.6124 72.7936 72.949C73.0243 73.2888 73.4099 73.4901 73.8186 73.4901ZM99.2697 72.4408V87.5335C99.2697 88.2231 98.7094 88.7841 98.0206 88.7841H94.5664C93.8776 88.7841 93.3206 88.2231 93.3206 87.5335V64.8219C93.3206 64.1322 93.8776 63.5713 94.5664 63.5713H96.956C97.4833 63.5713 97.9546 63.9046 98.1326 64.3995L98.3963 65.1386C98.5347 65.528 98.8544 65.825 99.2532 65.9273C99.652 66.0328 100.077 65.9306 100.387 65.6567C102.121 64.1223 104.312 63.2017 106.623 63.0367C106.976 63.0037 107.325 63.1192 107.585 63.3568C107.849 63.5944 107.997 63.931 107.997 64.284V67.8246C108.004 68.4713 107.513 69.019 106.87 69.0817C104.401 69.3226 102.015 70.1046 99.8828 71.3717C99.507 71.5961 99.273 72.0019 99.2697 72.4408ZM173.23 71.2529V87.5302C173.23 88.2198 172.673 88.7808 171.984 88.7808H168.53C167.841 88.7808 167.281 88.2198 167.281 87.5302V64.8186C167.281 64.1289 167.841 63.568 168.53 63.568H170.923C171.368 63.568 171.78 63.8056 172.004 64.1916L172.208 64.548C172.383 64.8516 172.68 65.0693 173.026 65.1419C173.369 65.2145 173.728 65.1386 174.015 64.9341C175.728 63.634 177.821 62.9279 179.974 62.9246C185.87 62.9246 189.294 66.0493 189.294 73.7937V87.5302C189.294 88.2198 188.734 88.7808 188.045 88.7808H184.591C183.902 88.7808 183.345 88.2198 183.345 87.5302V74.6351C183.345 70.0188 181.608 68.6297 178.586 68.6297C176.856 68.6429 175.175 69.2005 173.781 70.2201C173.438 70.4544 173.233 70.8405 173.23 71.2529ZM120.469 98.9998C118.017 98.98 115.594 98.5082 113.314 97.6041C112.898 97.4424 112.602 97.0695 112.532 96.6274L112.107 93.8755C112.038 93.4234 112.223 92.9713 112.582 92.6942C112.944 92.417 113.429 92.3576 113.844 92.5424C115.987 93.5257 118.314 94.0338 120.667 94.0338C124.846 94.0338 127.041 92.4566 127.575 88.3584C127.624 87.9196 127.44 87.4873 127.087 87.22C126.738 86.9528 126.27 86.8934 125.864 87.0616C124.378 87.6226 122.799 87.9031 121.211 87.8833C114.266 87.8833 109.563 83.762 109.563 75.625C109.563 67.5837 114.817 62.918 122.305 62.918C124.48 62.885 126.636 63.3832 128.577 64.3731C129.111 64.6635 129.78 64.5249 130.156 64.0464C130.393 63.7429 130.756 63.5647 131.141 63.5647H132.407C133.096 63.5647 133.653 64.1223 133.653 64.812V84.4582C133.659 96.1225 128.501 98.9998 120.469 98.9998ZM122.302 83.168C124.062 83.2472 125.792 82.7028 127.186 81.6271C127.512 81.3928 127.704 81.0166 127.704 80.6141V69.9792C127.707 69.5008 127.43 69.0586 126.998 68.8508C125.654 68.2271 124.18 67.9269 122.697 67.9796C118.287 67.9796 115.604 70.7085 115.604 75.526C115.611 80.2907 118.188 83.168 122.302 83.168ZM137.947 76.2189C137.947 68.3789 142.707 62.9213 150.439 62.9213C158.422 62.9213 162.983 67.9335 162.983 76.1232C162.983 84.0127 158.224 89.3747 150.393 89.3747C142.512 89.3747 137.947 84.4087 137.947 76.2189ZM157.034 76.0737C157.034 70.9098 154.358 67.9335 150.439 67.9335C146.523 67.9335 143.896 70.9626 143.896 76.0737C143.896 81.4819 146.721 84.3592 150.492 84.3592C154.41 84.3592 157.034 81.4324 157.034 76.0737ZM210.217 87.8107C210.069 87.4543 209.765 87.1903 209.396 87.0913C209.024 86.989 208.628 87.0682 208.322 87.2992C206.476 88.6422 204.235 89.3351 201.951 89.2724C197.195 89.2724 193.576 87.1375 193.576 81.8284C193.576 76.7634 197.633 74.0477 207.468 73.1601C207.867 73.1238 208.223 72.8995 208.427 72.5563C208.635 72.2131 208.664 71.7908 208.51 71.4245C207.606 69.217 205.606 68.3789 203.042 68.3789C201.081 68.3723 199.146 68.8376 197.402 69.7351C196.984 69.9397 196.489 69.8935 196.114 69.6163C195.741 69.3391 195.553 68.8772 195.629 68.4152L196.058 65.6798C196.114 65.3135 196.331 64.9901 196.648 64.8021C198.862 63.5251 201.377 62.8751 203.932 62.9213C210.474 62.9213 214.986 65.8976 214.986 74.0873V87.5269C214.986 88.2165 214.426 88.7775 213.737 88.7775H211.45C210.949 88.7775 210.497 88.4772 210.303 88.0152L210.217 87.8107ZM203.585 84.8509C205.365 84.8344 207.099 84.2635 208.543 83.2208C208.856 82.9866 209.044 82.6137 209.04 82.2177V77.7071C209.04 77.3474 208.885 77.0075 208.615 76.77C208.345 76.5324 207.989 76.4235 207.633 76.4664C201.73 77.2088 199.373 78.8455 199.373 81.4258C199.373 83.7158 200.761 84.8575 203.585 84.8575V84.8509ZM239.768 88.0317C239.6 87.7381 239.32 87.5236 238.994 87.4411C238.667 87.3553 238.318 87.4114 238.031 87.5896C236.087 88.7775 233.839 89.3813 231.561 89.3285C224.613 89.3285 219.913 84.9103 219.913 76.275C219.913 67.8411 225.315 62.9246 232.655 62.9246C233.951 62.9147 235.243 63.0763 236.495 63.4129C236.871 63.5119 237.266 63.4294 237.573 63.1918C237.876 62.9542 238.054 62.588 238.051 62.2019V51.5176C238.051 50.828 238.611 50.2703 239.3 50.2703H242.754C243.443 50.2703 244 50.828 244 51.5176V87.5335C244 88.2231 243.443 88.7808 242.754 88.7808H240.912C240.46 88.7808 240.045 88.5399 239.824 88.1472L239.768 88.0317ZM232.702 84.1117C234.415 84.1876 236.106 83.6993 237.517 82.7259C237.856 82.4916 238.057 82.1022 238.057 81.6898V70.0749C238.057 69.5965 237.784 69.1576 237.352 68.9465C235.994 68.3063 234.504 67.9895 233.002 68.0258C228.588 68.0258 225.905 71.1044 225.905 76.1661C225.912 81.1354 228.539 84.1117 232.702 84.1117Z" fill="white"/>
</g>
<defs>
<clipPath id="clip0_39_222">
<rect width="244" height="99" fill="white"/>
</clipPath>
</defs>
</svg>
