<svg width="523" height="99" viewBox="0 0 523 99" fill="none" xmlns="http://www.w3.org/2000/svg">
<path fill-rule="evenodd" clip-rule="evenodd" d="M118.559 73.6493V25.165H128.564V44.9518H147.732V25.165H157.735V73.6493H147.732V52.984H128.564V73.6493H118.559Z" fill="white"/>
<path fill-rule="evenodd" clip-rule="evenodd" d="M181.812 59.8073V58.273L174.35 58.858C171.458 59.078 170.004 60.4368 169.979 62.9384C169.979 64.2238 170.403 65.2156 171.251 65.9094C172.099 66.6099 173.243 66.9568 174.675 66.9568C176.761 66.9568 178.471 66.2852 179.809 64.9487C181.144 63.6099 181.812 61.8933 181.812 59.8073ZM193.09 66.8233C193.349 66.8233 194.32 66.7833 194.688 66.6965V73.6502C193.58 74.0394 191.385 74.2351 189.407 74.2351C187.497 74.2351 185.928 73.7791 184.716 72.8675C183.495 71.9513 182.746 70.6994 182.462 69.1115C181.574 70.7214 180.173 71.9913 178.26 72.9164C176.346 73.8414 174.177 74.304 171.74 74.304C168.354 74.304 165.624 73.3567 163.559 71.4598C161.496 69.5695 160.462 66.9922 160.462 63.7411C160.462 60.4879 161.483 57.9106 163.53 56.0204C165.572 54.1235 168.372 53.0716 171.935 52.8538L178.326 52.3957C180.498 52.2623 181.594 51.2393 181.616 49.3247C181.616 47.997 181.17 46.9742 180.282 46.2559C179.39 45.5398 178.182 45.1797 176.664 45.1797C174.923 45.1797 173.5 45.5866 172.392 46.405C171.285 47.2209 170.621 48.3485 170.403 49.7827H160.984C161.419 46.0401 163.086 43.1048 165.988 40.9835C168.891 38.8643 172.557 37.8013 176.988 37.8013C181.703 37.8013 185.255 38.9709 187.646 41.3102C190.037 43.6497 191.231 46.8785 191.231 50.9903V64.475C191.231 66.0427 191.851 66.8233 193.09 66.8233Z" fill="white"/>
<path fill-rule="evenodd" clip-rule="evenodd" d="M213.715 66.5629C215.933 66.5629 217.739 65.6267 219.139 63.7544C220.545 61.8841 221.245 59.3602 221.245 56.1802C221.245 52.9157 220.545 50.343 219.139 48.4595C217.739 46.5781 215.933 45.6376 213.715 45.6376C211.452 45.6376 209.618 46.4692 208.207 48.1348C206.793 49.798 206.068 52.0664 206.023 54.9394V57.3255C206.068 60.1763 206.793 62.4313 208.207 64.0835C209.618 65.7379 211.452 66.5629 213.715 66.5629ZM215.896 37.7988C220.397 37.7988 224.025 39.46 226.784 42.78C229.543 46.1 230.925 50.5676 230.925 56.1802C230.925 61.6217 229.566 66.0025 226.852 69.3204C224.132 72.6404 220.483 74.2993 215.896 74.2993C210.995 74.2993 208.024 72.8316 206.023 69.894V87.0346H196.539V38.4858H204.882L205.501 43.0891C206.523 41.4346 207.944 40.1404 209.772 39.2019C211.594 38.268 213.637 37.7988 215.896 37.7988Z" fill="white"/>
<path fill-rule="evenodd" clip-rule="evenodd" d="M250.079 66.5629C252.296 66.5629 254.104 65.6267 255.507 63.7544C256.909 61.8841 257.611 59.3602 257.611 56.1802C257.611 52.9157 256.909 50.343 255.507 48.4595C254.104 46.5781 252.296 45.6376 250.079 45.6376C247.82 45.6376 245.983 46.4692 244.573 48.1348C243.156 49.798 242.434 52.0664 242.386 54.9394V57.3255C242.434 60.1763 243.156 62.4313 244.573 64.0835C245.983 65.7379 247.82 66.5629 250.079 66.5629ZM252.264 37.7988C256.761 37.7988 260.393 39.46 263.152 42.78C265.909 46.1 267.288 50.5676 267.288 56.1802C267.288 61.6217 265.932 66.0025 263.216 69.3204C260.498 72.6404 256.847 74.2993 252.264 74.2993C247.678 74.2993 244.39 72.8316 242.386 69.894V87.0346H232.904V38.4858H241.246L241.865 43.0891C242.887 41.4346 244.309 40.1404 246.138 39.2019C247.962 38.268 250.003 37.7988 252.264 37.7988Z" fill="white"/>
<path fill-rule="evenodd" clip-rule="evenodd" d="M290.698 38.4858H300.25L284.961 76.7165C284.286 78.4154 283.672 79.7742 283.118 80.797C282.564 81.82 281.811 82.9051 280.853 84.0481C279.9 85.1889 278.712 86.0273 277.283 86.5611C275.86 87.0924 274.194 87.3615 272.282 87.3615C269.654 87.3615 267.577 86.9789 266.057 86.2185V78.8712C267.122 79.1336 268.069 79.307 268.894 79.3939C269.718 79.485 270.63 79.4694 271.629 79.3605C272.63 79.2538 273.511 78.889 274.273 78.2686C275.03 77.6482 275.64 76.7497 276.097 75.5758L277.365 72.2444L264.132 38.4858H273.816L282.157 62.7448C284.656 54.7992 286.819 48.5195 288.643 43.9073L290.698 38.4858Z" fill="white"/>
<path fill-rule="evenodd" clip-rule="evenodd" d="M318.48 58.402H328.518C328.518 60.9038 329.297 62.8027 330.849 64.0992C332.402 65.3957 334.56 66.0427 337.319 66.0427C339.58 66.0427 341.385 65.5135 342.748 64.4595C344.103 63.4031 344.785 62.0245 344.785 60.3277C344.785 58.7177 344.33 57.4924 343.414 56.6542C342.501 55.8158 341.165 55.1263 339.407 54.5816L332.107 52.6558C323.869 50.3475 319.751 45.7778 319.751 38.9441C319.751 34.5679 321.343 31.0699 324.528 28.446C327.709 25.8242 331.973 24.5122 337.319 24.5122C342.489 24.5122 346.663 25.8242 349.836 28.446C353.009 31.0699 354.596 34.5679 354.596 38.9441H344.785C344.785 37.0275 344.103 35.5264 342.748 34.4367C341.385 33.3492 339.58 32.8045 337.319 32.8045C335.276 32.8045 333.629 33.2937 332.383 34.2744C331.131 35.2529 330.505 36.5914 330.505 38.2905C330.505 39.5313 330.93 40.5541 331.778 41.3591C332.626 42.1641 334.092 42.8491 336.18 43.4163L343.383 45.4398C351.487 47.7036 355.539 52.4913 355.539 59.8051C355.539 64.2681 353.816 67.815 350.373 70.448C346.928 73.0831 342.557 74.3995 337.255 74.3995C331.387 74.3995 326.793 72.9364 323.465 70.0077C320.142 67.0812 318.48 63.2119 318.48 58.402Z" fill="white"/>
<path fill-rule="evenodd" clip-rule="evenodd" d="M374.909 66.5629C377.127 66.5629 378.934 65.6267 380.335 63.7544C381.739 61.8841 382.441 59.3602 382.441 56.1802C382.441 52.9157 381.739 50.343 380.335 48.4595C378.934 46.5781 377.127 45.6376 374.909 45.6376C372.65 45.6376 370.814 46.4692 369.403 48.1348C367.986 49.798 367.264 52.0664 367.216 54.9394V57.3255C367.264 60.1763 367.986 62.4313 369.403 64.0835C370.814 65.7379 372.65 66.5629 374.909 66.5629ZM377.092 37.7988C381.591 37.7988 385.221 39.46 387.98 42.78C390.739 46.1 392.119 50.5676 392.119 56.1802C392.119 61.6217 390.762 66.0025 388.046 69.3204C385.328 72.6404 381.677 74.2993 377.092 74.2993C372.508 74.2993 369.22 72.8316 367.216 69.894V87.0346H357.734V38.4858H366.076L366.695 43.0891C367.717 41.4346 369.139 40.1404 370.968 39.2019C372.788 38.268 374.831 37.7988 377.092 37.7988Z" fill="white"/>
<path fill-rule="evenodd" clip-rule="evenodd" d="M414.594 59.8073V58.273L407.13 58.858C404.241 59.078 402.784 60.4368 402.765 62.9384C402.765 64.2238 403.183 65.2156 404.034 65.9094C404.882 66.6099 406.023 66.9568 407.458 66.9568C409.544 66.9568 411.253 66.2852 412.591 64.9487C413.927 63.6099 414.594 61.8933 414.594 59.8073ZM425.872 66.8233C426.135 66.8233 426.448 66.7833 426.819 66.6965V73.6502C425.711 74.0394 424.167 74.2351 422.19 74.2351C420.277 74.2351 418.71 73.7791 417.496 72.8675C416.279 71.9513 415.529 70.6994 415.247 69.1115C414.358 70.7214 412.953 71.9913 411.04 72.9164C409.132 73.8414 406.957 74.304 404.522 74.304C401.134 74.304 398.406 73.3567 396.339 71.4598C394.278 69.5695 393.246 66.9922 393.246 63.7411C393.246 60.4879 394.265 57.9106 396.31 56.0204C398.353 54.1235 401.153 53.0716 404.719 52.8538L411.106 52.3957C413.281 52.2623 414.374 51.2393 414.399 49.3247C414.399 47.997 413.954 46.9742 413.062 46.2559C412.173 45.5398 410.964 45.1797 409.447 45.1797C407.703 45.1797 406.282 45.5866 405.174 46.405C404.066 47.2209 403.403 48.3485 403.183 49.7827H393.769C394.199 46.0401 395.867 43.1048 398.771 40.9835C401.672 38.8643 405.339 37.8013 409.77 37.8013C414.485 37.8013 418.037 38.9709 420.43 41.3102C422.82 43.6497 424.015 46.8785 424.015 50.9903V64.475C424.015 66.0427 424.632 66.8233 425.872 66.8233Z" fill="white"/>
<path fill-rule="evenodd" clip-rule="evenodd" d="M430.654 69.4708C427.676 66.2486 426.188 61.8035 426.188 56.1328C426.188 50.4622 427.734 45.988 430.814 42.7148C433.901 39.4369 437.99 37.8003 443.074 37.8003C447.307 37.8003 450.843 39.0322 453.664 41.4895C456.493 43.949 458.076 47.1599 458.424 51.1228H448.742C448.569 49.4217 447.902 48.0852 446.739 47.1044C445.578 46.126 444.204 45.6345 442.617 45.6345C440.574 45.6345 438.935 46.4972 437.712 48.2141C436.481 49.9352 435.869 52.5482 435.869 56.0528C435.869 59.6197 436.477 62.2547 437.694 63.9536C438.91 65.6482 440.549 66.4977 442.617 66.4977C444.266 66.4977 445.648 65.9973 446.755 64.9944C447.863 63.9959 448.524 62.6885 448.742 61.0806H458.424C458.076 65.0835 456.451 68.29 453.55 70.6939C450.649 73.1 446.974 74.303 442.518 74.303C437.584 74.303 433.629 72.6885 430.654 69.4708Z" fill="white"/>
<path fill-rule="evenodd" clip-rule="evenodd" d="M476.039 45.1141C473.997 45.1141 472.397 45.7457 471.248 47.0087C470.095 48.2695 469.465 49.9798 469.356 52.1322H482.461V52.0344C482.461 49.9018 481.866 48.2163 480.682 46.9753C479.5 45.7345 477.95 45.1141 476.039 45.1141ZM476.233 66.889C479.581 66.889 481.697 65.5525 482.589 62.8751H491.585C490.998 66.3575 489.302 69.1328 486.485 71.1986C483.67 73.2689 480.209 74.3008 476.103 74.3008C471.258 74.3008 467.371 72.7463 464.434 69.6331C461.502 66.5198 460.034 62.0701 460.034 56.2795C460.034 50.5333 461.49 46.0169 464.401 42.7303C467.313 39.4435 471.279 37.8003 476.299 37.8003C481.144 37.8003 484.953 39.3191 487.724 42.3545C490.494 45.3922 491.877 49.446 491.877 54.516C491.877 55.9526 491.758 57.2713 491.523 58.4678H469.356V58.9902C469.356 61.5364 469.973 63.4912 471.198 64.8498C472.426 66.2108 474.102 66.889 476.233 66.889Z" fill="white"/>
<mask id="mask0_39_257" style="mask-type:luminance" maskUnits="userSpaceOnUse" x="492" y="37" width="30" height="38">
<path d="M492.876 37.7998H521.95V74.3005H492.876V37.7998Z" fill="white"/>
</mask>
<g mask="url(#mask0_39_257)">
<path fill-rule="evenodd" clip-rule="evenodd" d="M502.265 63.0038C502.306 64.2891 502.797 65.3121 503.731 66.0748C504.664 66.8375 505.959 67.2179 507.611 67.2179C509.087 67.2179 510.25 66.8953 511.099 66.2549C511.943 65.6122 512.369 64.7806 512.369 63.7576C512.369 63.2129 512.264 62.7391 512.06 62.3345C511.85 61.9341 511.527 61.6006 511.08 61.3404C510.637 61.0803 510.337 60.9246 510.182 60.8845C510.032 60.8379 509.707 60.7334 509.206 60.5556L503.079 58.861C496.798 57.073 493.661 53.7108 493.661 48.7719C493.661 45.5074 494.902 42.8589 497.392 40.8354C499.879 38.8117 503.153 37.7998 507.215 37.7998C511.3 37.7998 514.64 38.7962 517.222 40.7886C519.806 42.7789 521.102 45.4407 521.102 48.7719H511.747C511.747 47.5288 511.335 46.5704 510.51 45.8988C509.684 45.2227 508.632 44.887 507.349 44.887C506.021 44.887 504.979 45.1893 504.221 45.8009C503.46 46.4081 503.079 47.2042 503.079 48.1826C503.079 48.9008 503.313 49.4901 503.781 49.9461C504.248 50.4019 504.681 50.7131 505.084 50.8777C505.486 51.0378 506.132 51.2535 507.024 51.5115L513.703 53.2415C516.376 53.962 518.419 55.2118 519.833 56.9996C521.244 58.7831 521.952 60.8845 521.952 63.2995C521.952 66.693 520.64 69.3771 518.025 71.3474C515.404 73.3175 511.912 74.3005 507.545 74.3005C503.177 74.3005 499.663 73.2886 497 71.2672C494.34 69.2414 492.965 66.4863 492.876 63.0038H502.265Z" fill="white"/>
</g>
<path fill-rule="evenodd" clip-rule="evenodd" d="M42.7958 0L0 24.7494V74.2494L42.7958 99L59.1501 89.6169V83.9275V78.2378V59.9876L67.5146 47.1166L50.8578 56.8889V83.0319L42.7958 87.6185L9.84041 68.56V30.4388L42.7958 11.383L75.7539 30.4388V68.56L70.6913 71.563V82.9459L85.5941 74.2494V24.7494L42.7958 0Z" fill="white"/>
</svg>
