<svg width="557" height="99" viewBox="0 0 557 99" fill="none" xmlns="http://www.w3.org/2000/svg">
<g clip-path="url(#clip0_39_219)">
<path d="M419.78 55.3311C415.029 55.3311 410.681 54.3411 406.926 52.5641C403.167 50.7821 400.002 48.0199 397.827 44.4609C395.653 40.9019 394.469 36.7537 394.469 31.8136C394.469 26.8735 395.059 22.9234 396.445 18.9684C397.827 15.0183 399.809 11.6572 402.379 8.8902C404.945 6.1281 408.11 3.9501 411.869 2.37105C415.624 0.792 419.78 0 424.525 0C429.27 0 433.618 0.99 437.571 2.76705C441.33 4.5441 444.297 7.31115 446.472 10.8702C448.646 14.4243 449.83 18.5724 449.83 23.7105C449.83 28.8486 449.24 32.6056 447.854 36.5557C446.472 40.5108 444.495 43.8669 441.925 46.6339C439.354 49.401 436.189 51.574 432.43 53.158C428.675 54.7371 424.525 55.5291 419.78 55.5291V55.3311ZM420.171 41.2979C421.954 41.2979 423.534 40.7088 424.916 39.5208C426.303 38.3377 427.288 36.7537 428.279 34.7787C429.27 32.8036 429.859 30.8286 430.255 28.4575C430.652 26.2795 430.85 24.1065 430.85 22.1315C430.85 20.1564 430.652 18.9684 430.057 17.9833C429.666 16.7953 428.873 16.0083 427.883 15.4143C426.897 14.8203 425.708 14.6223 424.128 14.6223C422.543 14.6223 420.765 15.2163 419.383 16.3993C417.996 17.5873 417.011 19.1664 416.02 21.1414C415.029 23.1214 414.44 25.0965 414.044 27.4675C413.648 29.6406 413.449 31.8136 413.449 33.7887C413.449 35.7687 413.648 36.7537 414.242 37.9417C414.638 39.1248 415.426 39.9168 416.416 40.5108C417.402 41.0998 418.591 41.2979 420.171 41.2979ZM507.172 0.99L503.814 14.8203H487.003L477.711 54.5391H458.532L467.824 14.8203H450.821L454.184 0.99H507.172ZM526.945 55.3311C522.2 55.3311 517.851 54.3411 514.091 52.5641C510.337 50.7821 507.172 48.0199 504.997 44.4609C502.823 40.9019 501.634 36.7537 501.634 31.8136C501.634 26.8735 502.229 22.9234 503.616 18.9684C504.997 15.0183 506.974 11.6572 509.544 8.8902C512.115 6.1281 515.28 3.9501 519.035 2.37105C522.794 0.792 526.945 0 531.69 0C536.435 0 540.789 0.99 544.741 2.76705C548.5 4.5441 551.462 7.31115 553.637 10.8702C555.816 14.4243 557 18.5724 557 23.7105C557 28.8486 556.406 32.6056 555.024 36.5557C553.637 40.5108 551.661 43.8669 549.09 46.6339C546.519 49.401 543.359 51.574 539.6 53.158C535.845 54.7371 531.69 55.5291 526.945 55.5291V55.3311ZM527.143 41.2979C528.921 41.2979 530.506 40.7088 531.888 39.5208C533.275 38.3377 534.26 36.7537 535.251 34.7787C536.237 32.8036 536.831 30.8286 537.227 28.4575C537.623 26.2795 537.822 24.1065 537.822 22.1315C537.822 20.1564 537.623 18.9684 537.029 17.9833C536.633 16.7953 535.845 16.0083 534.855 15.4143C533.864 14.8203 532.68 14.6223 531.1 14.6223C529.515 14.6223 527.737 15.2163 526.35 16.3993C524.968 17.5873 523.978 19.1664 522.992 21.1414C522.001 23.1214 521.407 25.0965 521.016 27.4675C520.62 29.6406 520.421 31.8136 520.421 33.7887C520.421 35.7687 520.62 36.7537 521.214 37.9417C521.605 39.1248 522.398 39.9168 523.388 40.5108C524.374 41.0998 525.563 41.2979 527.143 41.2979ZM208.604 54.5391L221.061 0.99H244.391L246.174 22.1315L246.565 35.7687L253.093 21.9335L263.965 0.99H290.464L278.007 54.5391H261.394L265.748 35.9617L269.701 19.1664L250.721 54.7371H236.287L232.924 19.7604L229.759 36.1597L225.41 54.7371H208.803L208.604 54.5391ZM279.785 54.5391L310.039 0.99H332.977L337.92 54.5391H319.925V43.8669H304.699L299.36 54.5391H279.785ZM310.435 32.0116H319.331V14.2263C319.133 14.2263 310.435 32.0116 310.435 32.0116ZM339.5 54.5391L351.957 0.99H371.135L366.786 19.1664L385.767 0.99H406.332L382.8 23.5125L394.271 54.5391H374.895L367.97 35.3727L361.249 41.4959L358.282 54.5391H339.104H339.5ZM7.71196 65.9983L0 98.604H33.0223L73.1572 66.3943L65.6433 98.604H98.6656L138.805 66.3943L131.292 98.604H164.314L172.026 65.9983H139.4L179.54 33.7887L187.049 0.99H154.031L113.891 33.1996L121.603 0.99H88.5811L7.71196 65.9983ZM213.151 99C210.779 99 208.604 98.406 206.628 97.4209C204.647 96.2329 203.067 94.6539 201.878 92.6788C200.694 90.5008 200.1 88.1298 200.1 85.1697C200.1 82.2046 200.496 80.2296 201.289 77.8585C202.076 75.4875 203.265 73.5075 204.647 71.5324C206.232 69.7554 208.01 68.1714 210.184 67.1863C212.359 66.1963 214.93 65.6023 217.698 65.6023C220.467 65.6023 221.849 65.9983 223.632 66.5923C225.41 67.1863 226.99 68.1714 228.179 69.5574C229.363 70.9384 230.353 72.7204 230.948 74.8935L225.608 76.2745C225.014 74.1015 224.222 72.5224 222.84 71.5324C221.458 70.5424 219.675 70.1514 217.5 70.1514C215.326 70.1514 213.944 70.5424 212.557 71.3344C211.175 72.1264 209.788 73.3095 208.803 74.6955C207.812 76.0765 207.019 77.6605 206.43 79.4376C205.836 81.2146 205.638 82.9917 205.638 84.7737C205.638 86.5507 206.034 88.7238 206.628 90.1098C207.416 91.6888 208.406 92.6788 209.59 93.4659C210.977 94.2579 212.557 94.6539 214.335 94.6539C216.118 94.6539 217.5 94.4559 218.689 93.8619C219.873 93.2679 220.863 92.4808 221.651 91.4908C222.443 90.5008 223.038 89.3178 223.434 87.9318L223.83 86.5507H214.142L215.128 82.2046H229.165L225.014 98.802H221.061L222.443 91.8868L223.038 92.4808C222.443 93.8619 221.651 95.0499 220.665 96.0349C219.675 97.0249 218.491 97.812 217.302 98.208C215.92 98.802 214.533 99 212.755 99H213.151ZM241.032 98.604L243.994 85.9567L237.273 65.8003H242.81L246.174 76.4725L247.556 81.4126L251.315 76.0765L259.418 65.6023H265.55L249.532 86.1548L246.565 98.406H241.23L241.032 98.604ZM264.758 98.604L272.47 65.8003H279.785L281.96 84.7737L282.554 92.4808L286.507 84.7737L297.384 65.8003H305.492L297.78 98.604H292.837L297.186 79.6356L299.558 70.7404L283.347 98.604H278.993L275.635 70.9384L274.05 79.8336L269.701 98.802H264.758V98.604Z" fill="white"/>
</g>
<defs>
<clipPath id="clip0_39_219">
<rect width="557" height="99" fill="white"/>
</clipPath>
</defs>
</svg>
