<svg width="213" height="101" viewBox="0 0 213 101" fill="none" xmlns="http://www.w3.org/2000/svg">
<g clip-path="url(#clip0_39_254)">
<path d="M29.0213 70.9658L43.9313 32.9579H52.9838L67.8938 70.9658H59.3738L55.3801 60.8658H39.6713L35.6776 70.9658H29.0213ZM41.2688 55.8158H53.2501L47.3926 40.6658L41.2688 55.8158ZM0.798828 70.7V64.0553C3.72758 65.3842 6.12383 66.1816 7.45508 66.1816C9.05258 66.4474 10.3838 66.4474 11.4488 66.4474C13.5788 66.4474 15.4426 65.9158 16.5076 64.8526C17.5726 63.7895 18.1051 62.7263 18.1051 61.3974C18.1051 60.3342 17.8388 59.2711 17.3063 58.4737C16.7738 57.6763 15.1763 56.6132 12.7801 55.2842L10.1176 53.9553C6.39008 51.8289 3.99383 49.9684 2.66258 48.3737C1.33133 46.5132 0.798828 44.6526 0.798828 42.2605C0.798828 39.3368 1.86383 36.9447 3.99383 34.8184C6.12383 32.6921 9.31883 31.6289 13.5788 31.6289C16.7738 31.6289 20.2351 32.1605 23.9626 32.9579V39.0711C19.9688 38.0079 16.7738 37.2105 14.6438 37.2105C12.7801 37.2105 11.1826 37.7421 10.3838 38.5395C9.31883 39.3368 8.78633 40.4 8.78633 41.4632C8.78633 42.2605 9.05258 43.3237 9.58508 43.8553C10.1176 44.6526 11.7151 45.7158 14.1113 47.0447L16.7738 48.6395C21.0338 51.0316 23.6963 53.1579 24.7613 54.7526C26.0926 56.6132 26.6251 58.4737 26.6251 60.6C26.6251 63.7895 25.5601 66.4474 23.1638 68.5737C20.7676 70.7 17.0401 71.7632 11.7151 71.7632C8.52008 72.029 5.05883 71.4974 0.798828 70.7ZM119.28 70.9658V32.9579H127.268V70.9658H119.28ZM154.425 72.029C150.431 72.029 146.97 71.2316 144.041 69.6368C141.113 68.0421 138.983 65.65 137.385 62.4605C135.788 59.2711 134.989 55.8158 134.989 52.0947C134.989 48.1079 135.788 44.6526 137.385 41.7289C138.983 38.8053 141.113 36.1474 144.041 34.5526C146.97 32.9579 150.431 32.1605 154.425 32.1605C158.419 32.1605 161.88 32.9579 164.809 34.5526C167.738 36.1474 170.134 38.5395 171.465 41.7289C173.063 44.9184 173.861 48.3737 173.861 52.0947C173.861 56.0816 173.063 59.5368 171.465 62.4605C169.868 65.65 167.738 67.7763 164.809 69.6368C161.88 71.2316 158.419 72.029 154.425 72.029ZM154.425 66.7132C158.153 66.7132 160.815 65.1184 162.679 62.1947C164.543 59.2711 165.341 55.8158 165.341 51.8289C165.341 47.8421 164.543 44.3868 162.679 41.4632C160.815 38.5395 158.153 37.2105 154.425 37.2105C150.698 37.2105 148.035 38.8053 146.171 41.7289C144.308 44.6526 143.509 48.1079 143.509 52.0947C143.509 56.0816 144.308 59.2711 146.171 62.4605C148.035 65.1184 150.698 66.7132 154.425 66.7132ZM181.849 70.9658V32.9579H189.304L206.078 57.9421V32.9579H212.201V70.9658H205.545L187.973 44.9184V70.9658H181.849ZM75.0826 38.2737C72.9526 43.5895 71.6213 49.4368 71.6213 55.2842C71.6213 59.0053 72.1538 62.7263 72.9526 66.1816L86.7976 52.3605L75.0826 38.2737ZM117.15 9.56842C110.76 9.56842 103.838 11.1632 97.9801 14.0868C89.1938 5.05 77.7451 0 65.4976 0H65.2313V7.7079H65.4976C74.8163 7.7079 83.8688 11.4289 90.5251 18.0737L90.7913 18.3395H90.5251C85.2001 22.3263 80.6738 27.1105 77.4788 32.9579H81.7388L92.6551 45.9816L101.974 36.6789H98.7788V32.9579H108.098C107.033 28.7053 105.169 24.4526 102.506 20.7316V20.4658H102.773C107.299 18.6053 112.358 17.5421 116.884 17.5421H119.014V9.56842H117.15ZM96.9151 50.7658L106.5 62.1947C108.896 56.8789 109.961 50.7658 109.961 44.9184C109.961 42.5263 109.695 40.4 109.429 38.2737L96.9151 50.7658ZM117.15 93.2921C107.299 93.2921 97.4476 89.0395 90.5251 81.8632L90.2588 81.5974H90.5251C95.0513 78.4079 98.7788 74.6868 101.974 70.4342L90.7913 57.1447L80.1413 68.0421H83.3363V71.2316H74.5501C75.6151 73.8895 76.9463 76.5474 78.2776 79.2053V79.4711H78.0113C74.0176 81.0658 69.7576 81.8632 65.2313 81.8632H64.9651V89.5711H65.2313C71.3551 89.5711 77.2126 88.2421 82.8038 85.85C91.8563 95.1526 104.37 101 117.15 101H119.28V93.2921H117.15Z" fill="white"/>
</g>
<defs>
<clipPath id="clip0_39_254">
<rect width="213" height="101" fill="white"/>
</clipPath>
</defs>
</svg>
