<svg width="213" height="102" viewBox="0 0 213 102" fill="none" xmlns="http://www.w3.org/2000/svg">
<g clip-path="url(#clip0_39_226)">
<path d="M196.388 23.6538C170.403 5.542 137.6 0.6392 106.5 0C75.6141 0.425 42.6007 5.1136 16.6155 23.4396C8.09532 29.8316 0 39.423 0 50.7178C0 62.0092 7.88121 71.8114 16.4013 77.9926C49.6289 101.646 98.6188 105.267 137.811 99.7288C162.732 96.1044 212.15 81.6136 213 50.7178C213 39.423 205.122 30.0458 196.388 23.6538ZM181.05 82.042C157.835 92.4834 131.85 95.6794 106.714 95.8936C77.745 95.6794 43.6644 91.205 19.3819 74.3682C11.7148 68.8296 4.47248 60.7308 4.25837 50.7178C4.68658 35.3736 19.596 25.3572 32.1638 19.1794C55.1685 8.5238 81.1537 4.9028 106.5 4.6886C131.85 4.6886 157.835 8.3096 181.05 18.9652C193.618 25.1464 208.742 35.1594 209.166 50.5036C208.528 66.0586 193.618 75.6466 181.05 81.8278V82.042ZM48.1539 40.9632C57.5271 40.5382 65.1942 38.1922 64.9835 35.6354C64.9835 33.2928 56.8881 31.586 47.3043 32.0144C38.57 32.4394 31.5418 34.5712 30.4747 36.703C29.6251 37.7672 28.772 39.0456 28.1331 40.749C26.6411 44.7984 27.7083 49.2728 29.411 50.1262C31.9667 52.258 38.1452 54.3898 45.5982 55.6682C50.0707 56.3074 54.1183 56.7324 57.313 56.5182C56.674 58.225 56.0351 60.1426 56.0351 62.0602C54.1183 61.846 51.9874 61.6352 49.4317 61.6352C46.876 61.6352 45.1734 61.6352 43.0425 61.846C33.0304 62.6994 25.1492 65.4704 25.5774 68.0272C25.7881 69.9448 31.3277 71.2232 38.57 71.2232C45.8123 71.2232 58.166 69.9448 61.1465 65.8954C62.2136 64.8312 63.0633 63.1244 63.7056 60.9926C64.9835 56.3074 64.3445 53.1114 62.4244 51.8296C59.6579 49.7012 53.6935 47.7836 46.4512 46.5052C41.7646 45.6518 37.5063 45.4376 34.3082 45.6518C35.1613 43.9484 35.5861 41.8166 35.8002 40.1098C38.9948 40.749 43.4673 41.1774 48.1539 40.9632ZM102.469 31.8002C102.045 30.9468 100.981 30.5218 99.4888 30.5218C93.7385 30.5218 85.0042 35.4246 80.9566 39.4706C82.6627 28.39 82.4485 20.2946 80.1036 19.8662C77.3371 19.4412 72.4365 30.5218 69.4559 44.5876C66.472 58.8642 66.2613 70.584 69.2418 70.584C71.7975 70.584 75.6311 62.0602 78.615 50.5512C79.8928 53.1114 81.8096 56.0932 84.1512 59.075C89.6908 65.8954 96.0801 71.009 99.2747 71.009C102.469 71.009 100.128 71.009 100.342 70.584C102.683 68.6664 98.6358 60.5676 92.0324 52.8972C89.2626 49.7012 86.2821 47.1444 83.9405 45.4376C86.2821 45.0126 89.2626 43.7342 92.2465 42.2416C98.8499 38.4064 103.322 33.7178 102.259 31.3752L102.469 31.8002ZM111.204 34.357C108.434 34.357 106.092 42.6666 106.092 52.683C106.092 62.6994 108.22 71.009 111.204 71.009C114.184 71.009 116.315 62.9136 116.315 52.683C116.315 42.4558 113.973 34.357 111.204 34.357ZM111.204 22.6372C107.795 22.6372 105.025 24.3406 105.025 26.4724C105.025 28.6042 107.795 30.0968 111.418 30.0968C114.823 30.0968 117.593 28.39 117.593 26.2616C117.593 24.1298 114.823 22.6372 111.204 22.6372ZM170.206 60.9926C165.305 60.9926 160.618 61.421 157.424 62.2744C159.13 58.225 160.832 51.8296 162.11 44.5876C162.11 43.3092 162.535 42.2416 162.535 40.9632C164.241 41.3882 166.372 41.6024 168.714 41.6024C175.317 41.6024 180.643 39.6848 180.643 37.128C180.643 34.5712 175.317 32.6536 168.714 32.6536C162.11 32.6536 164.88 32.6536 163.177 33.0786C163.602 25.194 162.749 19.6554 160.832 19.227C158.063 18.377 154.229 28.6042 152.098 42.0274C150.82 50.1262 150.61 57.3716 151.034 62.0602C147.84 61.421 143.792 60.9926 139.534 60.9926C134.633 60.9926 129.947 61.421 126.752 62.2744C128.458 58.225 130.161 51.8296 131.438 44.5876C131.438 43.3092 131.863 42.2416 131.863 40.9632C133.569 41.3882 135.697 41.6024 138.042 41.6024C144.645 41.6024 149.971 39.6848 149.971 37.128C149.971 34.5712 144.645 32.6536 138.042 32.6536C131.438 32.6536 134.208 32.6536 132.502 33.0786C132.93 25.194 132.077 19.6554 130.161 19.227C127.391 18.377 123.557 28.6042 121.426 42.0274C119.724 53.1114 119.724 62.6994 121.426 66.1096C121.426 66.1096 121.426 66.5346 121.64 66.5346C121.64 66.7488 122.065 66.9596 122.279 67.1738C124.621 69.0914 131.224 70.3698 139.106 70.3698C145.709 70.3698 151.673 69.5164 154.868 68.0272C158.063 69.3056 163.602 70.159 169.992 70.3698C180.004 70.3698 188.096 68.4522 188.31 65.6812C188.31 63.1244 180.428 60.9926 170.416 60.9926H170.206Z" fill="white"/>
</g>
<defs>
<clipPath id="clip0_39_226">
<rect width="213" height="102" fill="white"/>
</clipPath>
</defs>
</svg>
