<svg width="584" height="100" viewBox="0 0 584 100" fill="none" xmlns="http://www.w3.org/2000/svg">
<g clip-path="url(#clip0_39_232)">
<path d="M13.7936 10.0779C13.3219 10.4586 12.9453 10.9442 12.6936 11.496C12.4419 12.0479 12.322 12.6509 12.3435 13.2572C12.3364 13.8917 12.4971 14.5167 12.8093 15.0689C13.1214 15.6211 13.5739 16.0806 14.1208 16.401C15.3056 17.1803 18.0466 18.0984 22.3439 19.1552C26.6411 20.2179 29.9657 21.8031 32.3442 23.9196C34.7227 26.0361 35.9076 29.1268 35.9076 33.1916C35.9602 35.0799 35.5757 36.9548 34.7841 38.6694C33.9926 40.384 32.8155 41.8918 31.3451 43.0748C28.3034 45.5987 24.3039 46.8621 19.3464 46.865C12.1843 46.865 5.73555 44.2083 0 38.8948L6.0126 31.509C10.8846 35.7864 15.394 37.9236 19.5409 37.9207C21.0881 38.009 22.6217 37.5892 23.9089 36.7251C24.4196 36.3574 24.832 35.8693 25.1096 35.304C25.3872 34.7386 25.5214 34.1135 25.5005 33.4839C25.5172 32.8444 25.3709 32.2112 25.0754 31.6441C24.7799 31.077 24.345 30.5947 23.8117 30.2427C22.6887 29.4456 20.4694 28.6309 17.1447 27.8162C11.8837 26.5586 8.02858 24.938 5.59702 22.9189C3.16546 20.8998 1.93641 17.7559 1.93641 13.4609C1.93641 9.16579 3.47493 5.84485 6.5608 3.51577C9.63784 1.16897 13.4841 -0.00294638 18.0997 5.56271e-06C21.1828 0.00951009 24.2427 0.533266 27.1539 1.54978C30.0381 2.51255 32.7163 4.00847 35.0499 5.95998L29.9392 13.3457C26.4957 10.5367 22.2128 8.96237 17.7725 8.87355C16.3474 8.79363 14.9394 9.21668 13.7936 10.0691V10.0779Z" fill="white"/>
<path d="M66.5016 9.78569V46.3425H56.4039V9.78569H43.5918V1.03613H79.3137V9.78569H66.5016Z" fill="white"/>
<path d="M118.855 46.3337L114.655 36.548H95.6892L91.4892 46.3337H80.7461L100.278 1.03613H110.049L129.59 46.3425H118.847L118.855 46.3337ZM105.194 14.5147L99.5001 27.6745H110.827L105.194 14.5147Z" fill="white"/>
<path d="M153.922 9.78569V46.3425H143.825V9.78569H131.013V1.03613H166.735V9.78569H153.922Z" fill="white"/>
<path d="M177.345 1.03613H187.442V46.3425H177.345V1.03613Z" fill="white"/>
<path d="M276.739 23.2643H286.898V39.3376C282.416 44.35 276.203 46.8562 268.259 46.8562C265.17 46.9348 262.097 46.3895 259.223 45.253C256.349 44.1164 253.733 42.4119 251.53 40.2409C247.021 35.8396 244.766 30.2781 244.766 23.5565C244.687 20.4282 245.258 17.3175 246.444 14.4222C247.63 11.527 249.404 8.91055 251.654 6.7393C253.834 4.55437 256.431 2.83157 259.29 1.6737C262.149 0.515833 265.211 -0.053381 268.295 1.97993e-05C274.544 -0.0929583 280.595 2.19936 285.218 6.41164L279.975 13.9922C278.33 12.4644 276.437 11.2276 274.378 10.3348C272.613 9.65234 270.735 9.30982 268.843 9.32521C267.044 9.28516 265.255 9.61232 263.586 10.2868C261.917 10.9612 260.402 11.9689 259.134 13.2483C256.508 15.8608 255.194 19.3057 255.191 23.5831C255.188 27.8605 256.449 31.2847 258.975 33.8558C260.132 35.0888 261.531 36.0679 263.085 36.731C264.639 37.3941 266.314 37.7268 268.003 37.7081C271.04 37.8148 274.053 37.1217 276.739 35.6979V23.2554V23.2643Z" fill="white"/>
<path d="M344.681 46.3337V1.03613H354.778V37.3273H374.063V46.3337H344.689H344.681Z" fill="white"/>
<path d="M419.229 6.9696C423.543 10.9193 425.701 16.4158 425.701 23.4592C425.701 30.5025 423.599 36.0758 419.397 40.179C415.188 44.2881 408.771 46.3397 400.147 46.3338H384.683V1.02734H400.669C408.733 1.02734 414.922 3.00515 419.237 6.96075L419.229 6.9696ZM411.81 33.8913C414.295 31.5622 415.533 28.1616 415.533 23.716C415.533 19.2703 414.286 15.8431 411.81 13.4432C409.334 11.0433 405.523 9.84775 400.386 9.84775H394.754V37.3894H401.164C405.78 37.3894 409.328 36.2234 411.81 33.8913Z" fill="white"/>
<path d="M176.603 54.6846H186.7V99.991H176.603L155.055 71.5992V99.991H144.957V54.6846H154.409L176.603 83.8468V54.6846Z" fill="white"/>
<path d="M281.169 60.618C285.484 64.5677 287.641 70.0643 287.641 77.1076C287.641 84.1509 285.54 89.7242 281.337 93.8274C277.128 97.9365 270.712 99.9881 262.088 99.9822H246.623V54.6758H262.609C270.673 54.6758 276.863 56.6536 281.178 60.6092L281.169 60.618ZM273.759 87.5486C276.244 85.2195 277.482 81.8189 277.482 77.3733C277.482 72.9276 276.235 69.5004 273.759 67.1005C271.284 64.7006 267.473 63.505 262.335 63.505H256.703V91.0467H263.113C267.729 91.0467 271.278 89.8806 273.759 87.5486Z" fill="white"/>
<path d="M381.853 69.7218C381.853 76.9747 378.985 81.6624 373.249 83.7848L384.7 99.991H372.277L362.25 85.5383H355.265V99.991H345.167V54.6846H362.312C369.341 54.6846 374.358 55.8742 377.361 58.2535C380.364 60.6327 381.862 64.4555 381.853 69.7218ZM369.686 75.1061C370.942 73.9814 371.561 72.2014 371.561 69.7572C371.561 67.313 370.915 65.6392 369.615 64.7359C368.315 63.8326 366.052 63.381 362.816 63.381H355.247V76.7976H362.621C366.07 76.7976 368.422 76.2367 369.677 75.115L369.686 75.1061Z" fill="white"/>
<path d="M395.443 99.991V54.6846H405.541V90.9758H424.825V99.9821H395.452L395.443 99.991Z" fill="white"/>
<path d="M467.656 99.991L463.456 90.2053H444.49L440.29 99.991H429.547L449.088 54.6846H458.858L478.399 99.991H467.656ZM454.004 68.172L448.31 81.3318H459.636L454.004 68.172Z" fill="white"/>
<path d="M518.516 54.6846H528.613V99.991H518.516L496.968 71.5992V99.991H486.87V54.6846H496.322L518.516 83.8468V54.6846Z" fill="white"/>
<path d="M577.527 60.618C581.842 64.5677 584 70.0643 584 77.1076C584 84.1509 581.898 89.7242 577.695 93.8274C573.486 97.9365 567.07 99.9881 558.446 99.9822H542.981V54.6758H558.968C567.032 54.6758 573.221 56.6536 577.536 60.6092L577.527 60.618ZM570.118 87.5486C572.602 85.2195 573.84 81.8189 573.84 77.3733C573.84 72.9276 572.593 69.5004 570.118 67.1005C567.642 64.7006 563.831 63.505 558.694 63.505H553.061V91.0467H559.472C564.087 91.0467 567.636 89.8806 570.118 87.5486Z" fill="white"/>
<path d="M223.951 9.84781H234.65V1.03626H223.951C221.125 1.02648 218.324 1.5749 215.71 2.65014C213.095 3.72539 210.718 5.30637 208.714 7.30263C206.711 9.29889 205.119 11.6713 204.032 14.284C202.944 16.8968 202.382 19.6987 202.377 22.5294V37.3983H197.885V46.3427H202.377V54.6937H197.885V63.5141H202.377V78.0643C202.377 89.9842 212.059 100 223.951 100H234.65V91.0557H223.951C217.028 91.0557 211.404 84.9984 211.404 78.0643V63.5141H232.413V54.6937H211.404V46.3427H232.413V37.3983H211.404V22.5294C211.403 19.1856 212.721 15.977 215.071 13.6018C217.421 11.2267 220.613 9.87747 223.951 9.84781Z" fill="white"/>
<path d="M310.427 91.0113C310.225 91.0113 310.032 90.9311 309.889 90.7883C309.747 90.6454 309.666 90.4517 309.666 90.2497V63.4963H330.481V54.6759H309.666V46.3248H330.481V37.3804H309.684C309.708 35.2735 309.838 33.169 310.073 31.0751C310.834 24.7698 315.069 18.6415 325.98 18.6415V1.03613H316.979V10.8395C312.795 12.198 309.085 14.7249 306.286 18.1229C303.487 21.521 301.715 25.6489 301.178 30.0213C300.831 33.1053 300.672 36.2076 300.701 39.311V90.2586C300.703 92.8391 301.727 95.3133 303.549 97.138C305.371 98.9627 307.842 99.9888 310.418 99.9911H330.481V91.0113H310.418H310.427Z" fill="white"/>
</g>
<defs>
<clipPath id="clip0_39_232">
<rect width="584" height="100" fill="white"/>
</clipPath>
</defs>
</svg>
